<svg height="482pt" viewBox="-11 0 482 482.88647" width="482pt" xmlns="http://www.w3.org/2000/svg"><path d="m331.835938 169.238281h124.605468c2.210938 0 4-1.792969 4-4v-15.527343c0-2.207032-1.789062-4-4-4h-124.605468zm0 0" fill="#ffd551"/><path d="m331.835938 145.710938h53.84375v23.527343h-53.84375zm0 0" fill="#ffc34c"/><path d="m331.835938 482.886719h100.820312c2.210938 0 4-1.789063 4-4v-309.648438h-104.820312zm0 0" fill="#bf6c0d"/><path d="m331.835938 169.238281h53.84375v313.644531h-53.84375zm0 0" fill="#a56021"/><path d="m409.421875 257.125h-36.503906c-2.210938 0-4-1.789062-4-4v-54.078125c0-2.207031 1.789062-4 4-4h36.503906c2.210937 0 4 1.792969 4 4v54.078125c0 2.207031-1.792969 4-4 4zm0 0" fill="#ffd551"/><path d="m409.421875 351.21875h-36.503906c-2.210938 0-4-1.789062-4-4v-54.078125c0-2.207031 1.789062-4 4-4h36.503906c2.210937 0 4 1.792969 4 4v54.078125c0 2.207031-1.792969 4-4 4zm0 0" fill="#ffd551"/><path d="m409.421875 445.3125h-36.503906c-2.210938 0-4-1.789062-4-4v-54.074219c0-2.210937 1.789062-4 4-4h36.503906c2.210937 0 4 1.789063 4 4v54.074219c0 2.210938-1.792969 4-4 4zm0 0" fill="#ffd551"/><path d="m385.679688 383.238281h-12.765626c-2.207031 0-4 1.789063-4 4v54.074219c0 2.210938 1.792969 4 4 4h12.765626zm0 0" fill="#ffc34c"/><path d="m385.679688 289.140625h-12.765626c-2.207031 0-4 1.792969-4 4v54.078125c0 2.210938 1.792969 4 4 4h12.765626zm0 0" fill="#ffc34c"/><path d="m385.679688 195.046875h-12.765626c-2.207031 0-4 1.789063-4 4v54.074219c0 2.210937 1.792969 4 4 4h12.765626zm0 0" fill="#ffc34c"/><path d="m129.050781 169.238281h-124.609375c-2.207031 0-4-1.792969-4-4v-15.527343c0-2.207032 1.792969-4 4-4h124.609375zm0 0" fill="#ffd551"/><path d="m129.050781 482.886719h-100.820312c-2.210938 0-4-1.789063-4-4v-309.648438h104.820312zm0 0" fill="#a56021"/><path d="m24.230469 169.238281v309.644531c0 2.210938 1.789062 4 4 4h52v-313.644531zm0 0" fill="#8c4c17"/><path d="m113.996094 79.0625h231.683594v403.820312h-231.683594zm0 0" fill="#ffa730"/><path d="m113.996094 79.0625h56v403.820312h-56zm0 0" fill="#e58d23"/><path d="m87.359375 102.839844v-20c0-2.210938 1.789063-4 4-4h272c2.210937 0 4 1.789062 4 4v20c0 2.210937-1.789063 4-4 4h-272c-2.210937 0-4-1.789063-4-4zm0 0" fill="#ffdf74"/><path d="m322.957031 202.871094h-36.503906c-2.210937 0-4-1.789063-4-4v-54.078125c0-2.207031 1.789063-4 4-4h36.503906c2.210938 0 4 1.792969 4 4v54.078125c0 2.207031-1.792969 4-4 4zm0 0" fill="#ffdf74"/><path d="m248.089844 202.871094h-36.503906c-2.207032 0-4-1.789063-4-4v-54.078125c0-2.207031 1.792968-4 4-4h36.503906c2.210937 0 4 1.792969 4 4v54.078125c0 2.207031-1.789063 4-4 4zm0 0" fill="#ffdf74"/><path d="m323.234375 292.164062h-36.503906c-2.210938 0-4-1.792968-4-4v-54.078124c0-2.210938 1.789062-4 4-4h36.503906c2.207031 0 4 1.789062 4 4v54.078124c0 2.207032-1.792969 4-4 4zm0 0" fill="#ffdf74"/><path d="m248.371094 292.164062h-36.507813c-2.210937 0-4-1.792968-4-4v-54.078124c0-2.210938 1.789063-4 4-4h36.503907c2.210937 0 4 1.789062 4 4v54.078124c.003906 2.207032-1.789063 4-3.996094 4zm0 0" fill="#ffdf74"/><path d="m323.070312 383.21875h-36.503906c-2.210937 0-4-1.789062-4-4v-54.078125c0-2.207031 1.789063-4 4-4h36.503906c2.207032 0 4 1.792969 4 4v54.078125c0 2.207031-1.792968 4-4 4zm0 0" fill="#ffdf74"/><path d="m248.207031 383.21875h-36.503906c-2.210937 0-4-1.789062-4-4v-54.078125c0-2.207031 1.789063-4 4-4h36.503906c2.207031 0 4 1.792969 4 4v54.078125c0 2.207031-1.792969 4-4 4zm0 0" fill="#ffdf74"/><path d="m240.21875 16.441406 15.039062 1.960938c1.863282.238281 2.664063 2.492187 1.375 3.855468l-10.765624 11.414063c-.5.53125-.722657 1.273437-.589844 1.992187l2.878906 15.632813c.347656 1.886719-1.628906 3.34375-3.328125 2.457031l-13.371094-6.992187c-.699219-.363281-1.535156-.347657-2.214843.046875l-13.089844 7.542968c-1.664063.957032-3.699219-.421874-3.421875-2.320312l2.269531-15.730469c.101562-.722656-.144531-1.457031-.667969-1.972656l-11.195312-10.949219c-1.339844-1.308594-.632813-3.589844 1.214843-3.910156l14.964844-2.59375c.753906-.128906 1.394532-.625 1.707032-1.324219l6.367187-14.191406c.796875-1.773437 3.292969-1.824219 4.160156-.082031l6.90625 13.902344c.339844.691406 1.003907 1.164062 1.761719 1.261718zm0 0" fill="#ffa730"/><path d="m301.796875 19.683594 8.660156 1.132812c1.863281.238282 2.664063 2.492188 1.375 3.855469l-6.253906 6.632813c-.503906.535156-.722656 1.273437-.589844 1.992187l1.667969 9.042969c.347656 1.886718-1.628906 3.34375-3.328125 2.453125l-7.628906-3.984375c-.699219-.363282-1.53125-.347656-2.214844.046875l-7.460937 4.300781c-1.664063.957031-3.699219-.421875-3.425782-2.324219l1.3125-9.089843c.105469-.726563-.144531-1.460938-.667968-1.976563l-6.503907-6.359375c-1.339843-1.3125-.632812-3.589844 1.21875-3.910156l8.625-1.496094c.753907-.132812 1.394531-.628906 1.707031-1.324219l3.640626-8.117187c.796874-1.773438 3.296874-1.820313 4.160156-.082032l3.945312 7.945313c.339844.691406 1 1.164063 1.761719 1.261719zm0 0" fill="#ffb74b"/><path d="m356.996094 19.683594 8.660156 1.132812c1.863281.238282 2.664062 2.492188 1.378906 3.855469l-6.257812 6.632813c-.503906.535156-.722656 1.273437-.589844 1.992187l1.667969 9.042969c.347656 1.886718-1.628907 3.34375-3.328125 2.453125l-7.628906-3.984375c-.695313-.363282-1.53125-.347656-2.214844.046875l-7.460938 4.300781c-1.664062.957031-3.699218-.421875-3.421875-2.324219l1.308594-9.089843c.105469-.726563-.140625-1.460938-.667969-1.976563l-6.503906-6.359375c-1.339844-1.3125-.628906-3.589844 1.21875-3.910156l8.628906-1.496094c.753906-.132812 1.390625-.628906 1.703125-1.324219l3.644531-8.117187c.792969-1.773438 3.292969-1.820313 4.15625-.082032l3.945313 7.945313c.339844.691406 1 1.164063 1.761719 1.261719zm0 0" fill="#ffc34c"/><path d="m117.796875 19.683594 8.660156 1.132812c1.863281.238282 2.664063 2.492188 1.375 3.855469l-6.253906 6.632813c-.503906.535156-.722656 1.273437-.589844 1.992187l1.667969 9.042969c.347656 1.886718-1.628906 3.34375-3.328125 2.453125l-7.628906-3.984375c-.699219-.363282-1.53125-.347656-2.214844.046875l-7.460937 4.300781c-1.664063.957031-3.699219-.421875-3.425782-2.324219l1.3125-9.089843c.105469-.726563-.144531-1.460938-.667968-1.976563l-6.503907-6.359375c-1.339843-1.3125-.632812-3.589844 1.21875-3.910156l8.625-1.496094c.753907-.132812 1.394531-.628906 1.707031-1.324219l3.640626-8.117187c.796874-1.773438 3.296874-1.820313 4.160156-.082032l3.945312 7.945313c.339844.691406 1 1.164063 1.761719 1.261719zm0 0" fill="#ffc34c"/><path d="m172.996094 19.683594 8.660156 1.132812c1.863281.238282 2.664062 2.492188 1.378906 3.855469l-6.257812 6.632813c-.503906.535156-.722656 1.273437-.589844 1.992187l1.667969 9.042969c.347656 1.886718-1.628907 3.34375-3.328125 2.453125l-7.628906-3.984375c-.695313-.363282-1.53125-.347656-2.214844.046875l-7.460938 4.300781c-1.664062.957031-3.699218-.421875-3.421875-2.324219l1.308594-9.089843c.105469-.726563-.140625-1.460938-.667969-1.976563l-6.503906-6.359375c-1.339844-1.3125-.628906-3.589844 1.21875-3.910156l8.628906-1.496094c.753906-.132812 1.390625-.628906 1.703125-1.324219l3.644531-8.117187c.792969-1.773438 3.292969-1.820313 4.15625-.082032l3.945313 7.945313c.339844.691406 1 1.164063 1.761719 1.261719zm0 0" fill="#ffb74b"/><path d="m143.359375 102.839844v-20c0-2.210938 1.789063-4 4-4h-56c-2.210937 0-4 1.789062-4 4v20c0 2.210937 1.789063 4 4 4h56c-2.210937 0-4-1.789063-4-4zm0 0" fill="#ffd551"/><path d="m169.230469 111.511719v-12.679688c0-1.1875-.984375-2.148437-2.199219-2.148437h-9.894531c-1.214844 0-2.199219.960937-2.199219 2.148437v12.679688c0 1.183593-.984375 2.148437-2.199219 2.148437h-6.511719c-1.214843 0-2.199218-.964844-2.199218-2.148437v-38.8125c0-1.1875.984375-2.148438 2.199218-2.148438h6.511719c1.214844 0 2.199219.960938 2.199219 2.148438v12.34375c0 1.1875.984375 2.148437 2.199219 2.148437h9.894531c1.214844 0 2.199219-.960937 2.199219-2.148437v-12.34375c0-1.1875.984375-2.148438 2.195312-2.148438h6.515625c1.214844 0 2.199219.960938 2.199219 2.148438v38.8125c0 1.183593-.984375 2.148437-2.199219 2.148437h-6.515625c-1.210937 0-2.195312-.964844-2.195312-2.148437zm0 0" fill="#a56021"/><path d="m204.628906 114.046875c-17.960937 0-29.730468-18.582031-17.40625-38.207031.15625-.253906.511719-.601563.769532-.757813 20.074218-12.15625 39.117187-.644531 39.117187 16.9375.003906 12.558594-9.664063 22.027344-22.480469 22.027344zm0-34.117187c-6.929687 0-11.40625 4.746093-11.40625 12.089843 0 7.414063 4.476563 12.203125 11.40625 12.203125 6.925782 0 11.402344-4.789062 11.402344-12.203125 0-7.34375-4.476562-12.089843-11.402344-12.089843zm0 0" fill="#a56021"/><path d="m237.6875 111.511719v-29.324219c0-1.183594-.984375-2.148438-2.199219-2.148438h-6.234375c-1.210937 0-2.195312-.960937-2.195312-2.148437v-5.191406c0-1.1875.984375-2.148438 2.195312-2.148438h27.71875c1.210938 0 2.195313.960938 2.195313 2.148438v5.191406c0 1.1875-.984375 2.148437-2.195313 2.148437h-6.175781c-1.214844 0-2.199219.964844-2.199219 2.148438v29.324219c0 1.183593-.984375 2.148437-2.199218 2.148437h-6.515626c-1.210937 0-2.195312-.964844-2.195312-2.148437zm0 0" fill="#a56021"/><path d="m261.34375 111.511719v-38.871094c0-1.183594.984375-2.144531 2.199219-2.144531h21.945312c1.214844 0 2.195313.960937 2.195313 2.144531v5.195313c0 1.1875-.980469 2.148437-2.195313 2.148437h-11.035156c-1.214844 0-2.199219.960937-2.199219 2.148437v2.800782c0 1.1875.984375 2.148437 2.199219 2.148437h9.320313c1.214843 0 2.199218.960938 2.199218 2.148438v5.195312c0 1.183594-.984375 2.148438-2.199218 2.148438h-9.320313c-1.214844 0-2.199219.960937-2.199219 2.144531v3.304688c0 1.1875.984375 2.148437 2.199219 2.148437h11.035156c1.214844 0 2.195313.960937 2.195313 2.148437v5.195313c0 1.183594-.980469 2.148437-2.195313 2.148437h-21.945312c-1.214844-.003906-2.199219-.96875-2.199219-2.152343zm0 0" fill="#a56021"/><path d="m291.289062 111.511719v-38.8125c0-1.1875.980469-2.148438 2.195313-2.148438h6.515625c1.214844 0 2.195312.960938 2.195312 2.148438v29.378906c0 1.183594.984376 2.144531 2.199219 2.144531h9.035157c1.214843 0 2.199218.964844 2.199218 2.148438v5.140625c0 1.183593-.984375 2.148437-2.199218 2.148437h-19.945313c-1.214844 0-2.195313-.964844-2.195313-2.148437zm0 0" fill="#a56021"/><path d="m173.882812 202.871094h-36.507812c-2.210938 0-4-1.789063-4-4v-54.078125c0-2.207031 1.789062-4 4-4h36.503906c2.210938 0 4 1.792969 4 4v54.078125c.003906 2.207031-1.789062 4-3.996094 4zm0 0" fill="#ffdf74"/><path d="m174.15625 292.164062h-36.503906c-2.210938 0-4-1.792968-4-4v-54.078124c0-2.210938 1.789062-4 4-4h36.503906c2.210938 0 4 1.789062 4 4v54.078124c0 2.207032-1.789062 4-4 4zm0 0" fill="#ffdf74"/><path d="m173.996094 383.21875h-36.507813c-2.210937 0-4-1.789062-4-4v-54.078125c0-2.207031 1.789063-4 4-4h36.503907c2.210937 0 4 1.792969 4 4v54.078125c.003906 2.207031-1.789063 4-3.996094 4zm0 0" fill="#ffdf74"/><g fill="#ffd551"><path d="m169.996094 321.140625h-32.507813c-2.210937 0-4 1.792969-4 4v54.078125c0 2.210938 1.789063 4 4 4h32.507813zm0 0"/><path d="m169.996094 230.085938h-32.34375c-2.210938 0-4 1.789062-4 4v54.074218c0 2.207032 1.789062 4 4 4h32.34375zm0 0"/><path d="m169.996094 140.792969h-32.621094c-2.210938 0-4 1.792969-4 4v54.078125c0 2.207031 1.789062 4 4 4h32.621094zm0 0"/><path d="m298.453125 198.871094v-54.078125c0-2.207031 1.789063-4 4-4h-16c-2.210937 0-4 1.792969-4 4v54.078125c0 2.207031 1.789063 4 4 4h16c-2.210937 0-4-1.792969-4-4zm0 0"/><path d="m223.585938 198.871094v-54.078125c0-2.207031 1.792968-4 4-4h-16c-2.207032 0-4 1.792969-4 4v54.078125c0 2.207031 1.792968 4 4 4h16c-2.207032 0-4-1.792969-4-4zm0 0"/><path d="m298.730469 288.164062v-54.078124c0-2.210938 1.789062-4 4-4h-16c-2.210938 0-4 1.789062-4 4v54.074218c0 2.207032 1.789062 4 4 4h16c-2.210938.003906-4-1.789062-4-3.996094zm0 0"/><path d="m223.863281 288.164062v-54.078124c0-2.210938 1.789063-4 4-4h-16c-2.210937 0-4 1.789062-4 4v54.074218c0 2.207032 1.789063 4 4 4h16c-2.207031.003906-4-1.789062-4-3.996094zm0 0"/><path d="m298.566406 379.21875v-54.078125c0-2.207031 1.789063-4 4-4h-16c-2.210937 0-4 1.792969-4 4v54.078125c0 2.210938 1.789063 4 4 4h16c-2.210937 0-4-1.789062-4-4zm0 0"/><path d="m223.699219 379.21875v-54.078125c0-2.207031 1.789062-4 4-4h-16c-2.210938 0-4 1.792969-4 4v54.078125c0 2.210938 1.789062 4 4 4h16c-2.207031 0-4-1.789062-4-4zm0 0"/></g><path d="m228.367188 375.304688-41.304688 38.03125c-.472656.433593-.738281 1.042968-.738281 1.679687v67.871094h87.257812v-67.871094c0-.636719-.269531-1.246094-.742187-1.679687l-41.300782-38.03125c-.890624-.820313-2.28125-.820313-3.171874 0zm0 0" fill="#ffdf74"/><path d="m261.582031 472.886719c-3.316406 0-6-2.6875-6-6v-45.851563c0-3.316406 2.683594-6 6-6 3.3125 0 6 2.683594 6 6v45.851563c0 3.3125-2.6875 6-6 6zm0 0" fill="#fff4c1"/><path d="m248.441406 481.175781h-36v-56c0-2.210937 1.792969-4 4-4h28c2.210938 0 4 1.789063 4 4zm0 0" fill="#f9bb32"/><path d="m203.0625 413.335938 34.890625-32.125-6.410156-5.90625c-.894531-.820313-2.285157-.820313-3.175781 0l-41.304688 38.03125c-.472656.433593-.738281 1.042968-.738281 1.679687v67.871094h16v-67.871094c0-.636719.265625-1.246094.738281-1.679687zm0 0" fill="#ffd551"/><path d="m273.582031 428.058594v-12.183594l-43.628906-36.796875-43.628906 36.796875v12.183594h-6.84375c-3.605469 0-6.542969-2.820313-6.542969-6.292969v-14.472656l52.703125-44.464844c1.191406-1.003906 2.722656-1.558594 4.3125-1.558594s3.121094.554688 4.3125 1.558594l52.699219 44.464844v14.472656c0 3.472656-2.933594 6.296875-6.539063 6.296875h-6.84375zm0 0" fill="#ff624b"/><path d="m180.9375 421.765625v-14.472656l52.703125-44.464844c.097656-.082031.210937-.140625.3125-.21875-1.144531-.855469-2.542969-1.34375-4-1.34375-1.589844 0-3.121094.554687-4.3125 1.5625l-52.703125 44.460937v14.472657c0 3.472656 2.9375 6.296875 6.542969 6.296875h6.84375v-.113282c-3.054688-.527343-5.386719-3.089843-5.386719-6.179687zm0 0" fill="#ff4b34"/><path d="m232.441406 421.175781h-16c-2.207031 0-4 1.789063-4 4v56h16v-56c0-2.210937 1.792969-4 4-4zm0 0" fill="#db9c2e"/><path d="m149.488281 379.21875v-54.078125c0-2.207031 1.789063-4 4-4h-16c-2.210937 0-4 1.792969-4 4v54.078125c0 2.210938 1.789063 4 4 4h16c-2.207031 0-4-1.789062-4-4zm0 0" fill="#ffc34c"/><path d="m149.652344 288.164062v-54.078124c0-2.210938 1.789062-4 4-4h-16c-2.210938 0-4 1.789062-4 4v54.074218c0 2.207032 1.789062 4 4 4h16c-2.210938.003906-4-1.789062-4-3.996094zm0 0" fill="#ffc34c"/><path d="m149.375 198.871094v-54.078125c0-2.207031 1.789062-4 4-4h-16c-2.210938 0-4 1.792969-4 4v54.078125c0 2.207031 1.789062 4 4 4h16c-2.207031 0-4-1.792969-4-4zm0 0" fill="#ffc34c"/><path d="m56.441406 165.238281v-15.527343c0-2.207032 1.792969-4 4-4h-56c-2.207031 0-4 1.792968-4 4v15.527343c0 2.207031 1.792969 4 4 4h56c-2.207031 0-4-1.792969-4-4zm0 0" fill="#ffc34c"/><path d="m87.367188 257.125h-36.507813c-2.207031 0-4-1.789062-4-4v-54.078125c0-2.207031 1.792969-4 4-4h36.507813c2.207031 0 4 1.792969 4 4v54.078125c0 2.207031-1.792969 4-4 4zm0 0" fill="#ffd551"/><path d="m87.367188 351.21875h-36.507813c-2.207031 0-4-1.789062-4-4v-54.078125c0-2.207031 1.792969-4 4-4h36.507813c2.207031 0 4 1.792969 4 4v54.078125c0 2.207031-1.792969 4-4 4zm0 0" fill="#ffd551"/><path d="m87.367188 445.3125h-36.507813c-2.207031 0-4-1.789062-4-4v-54.074219c0-2.210937 1.792969-4 4-4h36.507813c2.207031 0 4 1.789063 4 4v54.074219c0 2.210938-1.792969 4-4 4zm0 0" fill="#ffd551"/><path d="m80.230469 383.238281h-29.371094c-2.207031 0-4 1.789063-4 4v54.074219c0 2.210938 1.792969 4 4 4h29.371094zm0 0" fill="#ffc34c"/><path d="m80.230469 289.140625h-29.371094c-2.207031 0-4 1.792969-4 4v54.078125c0 2.210938 1.792969 4 4 4h29.371094zm0 0" fill="#ffc34c"/><path d="m80.230469 195.046875h-29.371094c-2.207031 0-4 1.789063-4 4v54.074219c0 2.210937 1.792969 4 4 4h29.371094zm0 0" fill="#ffc34c"/><path d="m62.859375 441.3125v-54.074219c0-2.210937 1.792969-4 4-4h-16c-2.207031 0-4 1.789063-4 4v54.074219c0 2.210938 1.792969 4 4 4h16c-2.207031 0-4-1.789062-4-4zm0 0" fill="#ffb74b"/><path d="m62.859375 347.21875v-54.078125c0-2.207031 1.792969-4 4-4h-16c-2.207031 0-4 1.792969-4 4v54.078125c0 2.210938 1.792969 4 4 4h16c-2.207031 0-4-1.789062-4-4zm0 0" fill="#ffb74b"/><path d="m62.859375 253.125v-54.078125c0-2.207031 1.792969-4 4-4h-16c-2.207031 0-4 1.792969-4 4v54.078125c0 2.207031 1.792969 4 4 4h16c-2.207031 0-4-1.792969-4-4zm0 0" fill="#ffb74b"/><path d="m322.816406 455.484375c0 9.9375-8.058594 18-18 18s-18-8.0625-18-18c0-9.941406 8.058594-18 18-18s18 8.058594 18 18zm0 0" fill="#e58d23"/><path d="m424.65625 472.886719c-3.316406 0-6-2.6875-6-6v-131.117188c0-3.3125 2.683594-6 6-6 3.3125 0 6 2.6875 6 6v131.117188c0 3.3125-2.6875 6-6 6zm0 0" fill="#e58d23"/></svg>