<?xml version="1.0" encoding="iso-8859-1"?>
<!-- Generator: Adobe Illustrator 19.0.0, SVG Export Plug-In . SVG Version: 6.00 Build 0)  -->
<svg version="1.1" id="Layer_1" xmlns="http://www.w3.org/2000/svg" xmlns:xlink="http://www.w3.org/1999/xlink" x="0px" y="0px"
	 viewBox="0 0 512 512" style="enable-background:new 0 0 512 512;" xml:space="preserve">
<path style="fill:#E0FAF2;" d="M477.54,362.66H34.46V248.385c0-45.598,36.964-82.562,82.562-82.562h277.957
	c45.598,0,82.562,36.964,82.562,82.562V362.66H477.54z"/>
<path style="fill:#D1E9E2;" d="M477.54,248.385c0-45.598-36.964-82.562-82.562-82.562H256V362.66h221.54L477.54,248.385
	L477.54,248.385z"/>
<path style="fill:#D85397;" d="M368.574,399.185h-51.236c-27.733,0-50.214-22.481-50.214-50.214v-28.857
	c0-27.733,22.481-50.214,50.214-50.214h51.236c27.733,0,50.214,22.481,50.214,50.214v28.857
	C418.787,376.704,396.306,399.185,368.574,399.185z"/>
<path style="fill:#E759A0;" d="M194.662,399.185h-51.236c-27.733,0-50.214-22.481-50.214-50.214v-28.857
	c0-27.733,22.481-50.214,50.214-50.214h51.236c27.733,0,50.214,22.481,50.214,50.214v28.857
	C244.875,376.704,222.394,399.185,194.662,399.185z"/>
<path style="fill:#95E9D2;" d="M512,504.275H0V329.553h512V504.275z"/>
<rect x="256" y="329.55" style="fill:#8CD9C3;" width="256" height="174.726"/>
<path style="fill:#D02D7F;" d="M285.646,7.725c-12.727,0-23.815,7.454-29.646,18.482c-5.831-11.029-16.918-18.482-29.646-18.482
	c-22.337,0-37.137,16.226-37.137,36.242c0,20.015,11.283,32.127,37.138,50.393C248.946,110.32,256,121.521,256,121.521
	s7.056-11.201,29.646-27.163c25.854-18.265,37.137-30.378,37.137-50.392C322.783,23.95,307.984,7.725,285.646,7.725z"/>
<path style="fill:#C42C78;" d="M285.646,7.725c-12.727,0-23.815,7.454-29.646,18.482c0,10.904,0,95.314,0,95.314
	s7.056-11.201,29.646-27.163c25.854-18.265,37.137-30.378,37.137-50.392C322.783,23.95,307.984,7.725,285.646,7.725z"/>
<path style="fill:#7DC3AF;" d="M512,504.275H0v-33.391h512V504.275z"/>
<rect x="256" y="470.884" style="fill:#76B8A6;" width="256" height="33.391"/>
<g>
</g>
<g>
</g>
<g>
</g>
<g>
</g>
<g>
</g>
<g>
</g>
<g>
</g>
<g>
</g>
<g>
</g>
<g>
</g>
<g>
</g>
<g>
</g>
<g>
</g>
<g>
</g>
<g>
</g>
</svg>
