<svg height="464pt" viewBox="-16 0 464 464" width="464pt" xmlns="http://www.w3.org/2000/svg"><path d="m80 416h32v48h-32zm0 0" fill="#aabece"/><path d="m304 416h32v48h-32zm0 0" fill="#aabece"/><path d="m8 264h400v64c0 61.855469-50.144531 112-112 112h-160c-70.691406 0-128-57.308594-128-128zm0 0" fill="#2d75bb"/><path d="m16 240h384c8.835938 0 16 7.164062 16 16s-7.164062 16-16 16h-384c-8.835938 0-16-7.164062-16-16s7.164062-16 16-16zm0 0" fill="#fcf05a"/><path d="m280 240c8-32-9.894531-80-64-56 0-24-26-40-56-40-31.671875 0-56 24-56 48-7.710938-9.882812-19.46875-15.761719-32-16-24.59375 0-48 8-48 64zm0 0" fill="#87cee9"/><path d="m344 0h32v32h-32zm0 0" fill="#5a6470"/><path d="m320 32h80v40h-80zm0 0" fill="#aabece"/><path d="m328 64h64c17.671875 0 32 14.328125 32 32v8h-128v-8c0-17.671875 14.328125-32 32-32zm0 0" fill="#5a6470"/><g fill="#2d75bb"><path d="m296 176c-4.417969 0-8-3.582031-8-8v-32c0-4.417969 3.582031-8 8-8s8 3.582031 8 8v32c0 4.417969-3.582031 8-8 8zm0 0"/><path d="m328 152c-4.417969 0-8-3.582031-8-8v-8c0-4.417969 3.582031-8 8-8s8 3.582031 8 8v8c0 4.417969-3.582031 8-8 8zm0 0"/><path d="m360 176c-4.417969 0-8-3.582031-8-8v-32c0-4.417969 3.582031-8 8-8s8 3.582031 8 8v32c0 4.417969-3.582031 8-8 8zm0 0"/><path d="m392 152c-4.417969 0-8-3.582031-8-8v-8c0-4.417969 3.582031-8 8-8s8 3.582031 8 8v8c0 4.417969-3.582031 8-8 8zm0 0"/><path d="m328 192c-4.417969 0-8-3.582031-8-8v-8c0-4.417969 3.582031-8 8-8s8 3.582031 8 8v8c0 4.417969-3.582031 8-8 8zm0 0"/><path d="m392 192c-4.417969 0-8-3.582031-8-8v-8c0-4.417969 3.582031-8 8-8s8 3.582031 8 8v8c0 4.417969-3.582031 8-8 8zm0 0"/><path d="m360 216c-4.417969 0-8-3.582031-8-8v-8c0-4.417969 3.582031-8 8-8s8 3.582031 8 8v8c0 4.417969-3.582031 8-8 8zm0 0"/><path d="m424 216c-4.417969 0-8-3.582031-8-8v-8c0-4.417969 3.582031-8 8-8s8 3.582031 8 8v8c0 4.417969-3.582031 8-8 8zm0 0"/><path d="m424 176c-4.417969 0-8-3.582031-8-8v-32c0-4.417969 3.582031-8 8-8s8 3.582031 8 8v32c0 4.417969-3.582031 8-8 8zm0 0"/></g><path d="m328 400c-3.875.011719-7.199219-2.757812-7.890625-6.570312-.695313-3.8125 1.445313-7.570313 5.074219-8.925782 56.671875-21.238281 43.640625-76.230468 43.054687-78.558594-1.035156-4.273437 1.566407-8.582031 5.832031-9.648437 4.265626-1.070313 8.589844 1.503906 9.691407 5.757813.175781.714843 16.925781 71.203124-52.945313 97.441406-.902344.328125-1.855468.5-2.816406.503906zm0 0" fill="#fff"/></svg>